<!DOCTYPE svg PUBLIC "-//W3C//DTD SVG 1.1//EN" "http://www.w3.org/Graphics/SVG/1.1/DTD/svg11.dtd">
<!-- Uploaded to: SVG Repo, www.svgrepo.com, Transformed by: SVG Repo Mixer Tools -->
<svg fill="#000000" height="800px" width="800px" version="1.1" id="Layer_1" xmlns="http://www.w3.org/2000/svg" xmlns:xlink="http://www.w3.org/1999/xlink" viewBox="0 0 512 512" xml:space="preserve">
<g id="SVGRepo_bgCarrier" stroke-width="0"/>
<g id="SVGRepo_tracerCarrier" stroke-linecap="round" stroke-linejoin="round"/>
<g id="SVGRepo_iconCarrier"> <g> <g> <g> <path d="M330.639,308.46c-0.671-0.437-1.374-0.823-2.1-1.173c-21.584-11.722-46.297-18.386-72.539-18.386 c-84.08,0-152.485,68.404-152.485,152.485v51.882c0,10.345,8.387,18.732,18.732,18.732h267.508 c10.345,0,18.732-8.387,18.732-18.732v-51.882C408.485,384.405,377.062,334.631,330.639,308.46z M301.698,474.537H140.979v-33.15 c0-63.423,51.598-115.021,115.021-115.021c16.23,0,31.683,3.385,45.698,9.478V474.537z M371.022,474.537h-31.861V362.003 c19.728,20.659,31.861,48.63,31.861,79.384V474.537z"/> <circle cx="265.541" cy="438.372" r="13.198"/> <path d="M159.622,37.451v103.388c-4.482,11.722-6.773,24.063-6.773,36.755c0,56.878,46.274,103.152,103.152,103.152 s103.152-46.274,103.152-103.152c0-12.694-2.292-25.034-6.773-36.755V37.451c10.228-0.136,18.481-8.459,18.481-18.719 C370.86,8.387,362.473,0,352.128,0H159.873c-10.345,0-18.732,8.387-18.732,18.732C141.142,28.992,149.395,37.315,159.622,37.451z M197.087,37.466h117.829v88.223H197.087V37.466z M191.898,163.151h128.205c1.054,4.702,1.586,9.528,1.586,14.442 c0,36.221-29.467,65.688-65.688,65.688s-65.688-29.467-65.688-65.688C190.312,172.679,190.844,167.852,191.898,163.151z"/> </g> </g> </g> </g>
</svg>